# xmcd
#
# Track frame offsets:
#	150
#	3962
#	29858
#	41549
#	55715
#	72011
#	105227
#	120492
#	133141
#	152982
#	177040
#	196910
#	220124
#	234592
#	259413
#	279032
#	305267
#	322681
#	325679
#
# Disc length: 4540 seconds
# Revision: 0
# Processed by: cddbd v1.5.2PL0 Copyright (c) Steve Scherf et al.
# Submitted via: dBpowerAMP V12.0
#
DISCID=f711ba13
DTITLE=Clint Morgan - Scofflaw
DYEAR=2016
DGENRE=Blues
TTITLE0=This Little Light of Mine
TTITLE1=Waco
TTITLE2=Wild One
TTITLE3=I Got a Gun
TTITLE4=Don't Know Where to Turn
TTITLE5=Eastham Farm
TTITLE6=D.B. Cooper Blues
TTITLE7=I Love Robbing Banks
TTITLE8=Bad Man
TTITLE9=Thief in the Night
TTITLE10=Wanted Man
TTITLE11=Face in the Mirror
TTITLE12=Sack Full of Cash
TTITLE13=Lectric Chair
TTITLE14=Softly and Tenderly
TTITLE15=I Remember You, Lord
TTITLE16=I've Done Made Up My Mind
TTITLE17=This Little Light of Mine (reprise)
TTITLE18=I Got a Gun (alternate version) 
EXTD=
EXTT0=
EXTT1=
EXTT2=
EXTT3=
EXTT4=
EXTT5=
EXTT6=
EXTT7=
EXTT8=
EXTT9=
EXTT10=
EXTT11=
EXTT12=
EXTT13=
EXTT14=
EXTT15=
EXTT16=
EXTT17=
EXTT18=
PLAYORDER=
